<svg xmlns="http://www.w3.org/2000/svg" viewBox="0 0 24 24" width="64" height="64">
  <circle cx="12" cy="12" r="12" fill="#0B5A49"/>
  <path fill="#E1F5EE" d="M6.62 10.79c1.44 2.83 3.76 5.14 6.59 6.59l2.2-2.2c.27-.27.67-.36 1.02-.24 1.12.37 2.33.57 3.57.57.55 0 1 .45 1 1V20c0 .55-.45 1-1 1-9.39 0-17-7.61-17-17 0-.55.45-1 1-1h3.5c.55 0 1 .45 1 1 0 1.25.2 2.45.57 3.57.11.35.03.74-.25 1.02l-2.2 2.2z"/>
  <g stroke="#5FE0B8" stroke-width="1.3" stroke-linecap="round" fill="none">
    <path d="M15.5 6.2c1.6.5 2.8 1.7 3.3 3.3" opacity="0">
      <animate attributeName="opacity" values="0;1;0.4;0" dur="1.8s" repeatCount="indefinite"/>
    </path>
    <path d="M16.6 3.6c2.7.8 4.8 2.9 5.6 5.6" opacity="0">
      <animate attributeName="opacity" values="0;1;0.4;0" dur="1.8s" begin="0.35s" repeatCount="indefinite"/>
    </path>
  </g>
</svg>
